<?xml version="1.0" encoding="UTF-8"?>
<svg id="Artwork" xmlns="http://www.w3.org/2000/svg" version="1.1" xmlns:cc="http://creativecommons.org/ns#" xmlns:dc="http://purl.org/dc/elements/1.1/" xmlns:rdf="http://www.w3.org/1999/02/22-rdf-syntax-ns#" xmlns:svg="http://www.w3.org/2000/svg" viewBox="0 0 372.5 290.3">
  <!-- Generator: Adobe Illustrator 29.4.0, SVG Export Plug-In . SVG Version: 2.1.0 Build 152)  -->
  <defs>
    <style>
      .st0 {
        fill: #ef3340;
      }
    </style>
  </defs>
  <path id="path7" class="st0" d="M212.44,75.55S161.11-5.21,103.85,27.19c-70.99,40.32-5.94,166.84-5.94,166.84,0,0-26.1-94,32.65-119.84,38.34-16.82,81.87,1.36,81.87,1.36h0Z"/>
  <path id="path9" class="st0" d="M177.69,23.11s139.76,28.82,122.69,115.02c-12.49,62.58-82.49,69.75-82.49,69.75,0,0,55.9-50.09,20.41-117-22.51-41.93-60.6-67.78-60.6-67.78h0Z"/>
  <path id="path11" class="st0" d="M284.91,194.28s-73.84,112.42-135.67,64.68c-47.99-37.1-46.26-109.83-46.26-109.83,0,0,33.27,70.25,96.84,73.84,46.01,2.23,85.09-28.69,85.09-28.69h0Z"/>
  <path id="path13" class="st0" d="M139.84,179.56s-61.1-60.85-6.18-92.02c37.85-21.52,89.67,3.83,89.67,3.83,0,0-61.34-.74-78.41,37.6-11.25,25.23-5.07,50.58-5.07,50.58h0Z"/>
  <path id="path15" class="st0" d="M166.68,117.97s67.78-39.33,69.51,13.23c1.73,44.77-37.1,77.17-37.1,77.17,0,0,33.52-43.66,11.01-71.61-14.35-17.31-43.41-18.8-43.41-18.8Z"/>
  <path id="path17" class="st0" d="M202.67,174.62s-7.92,42.17-38.09,23.75c-24.49-15.09-12.49-58.5-12.49-58.5,0,0,1.24,36.48,25.35,44.15,12.24,3.71,25.23-9.4,25.23-9.4h0Z"/>
  <path id="path19" class="st0" d="M179.17,173.38s22.76-2.6,18.18-22.76c-4.58-20.65-38.34-18.92-38.34-18.92,0,0,23,7.67,26.1,24.49,1.73,10.02-5.94,17.19-5.94,17.19Z"/>
</svg>