<?xml version="1.0" encoding="UTF-8" standalone="no"?>
<svg
   xmlns:dc="http://purl.org/dc/elements/1.1/"
   xmlns:cc="http://creativecommons.org/ns#"
   xmlns:rdf="http://www.w3.org/1999/02/22-rdf-syntax-ns#"
   xmlns:svg="http://www.w3.org/2000/svg"
   xmlns="http://www.w3.org/2000/svg"
   xml:space="preserve"
   style="enable-background:new 0 0 372.5 290.3;"
   viewBox="0 0 372.5 290.3"
   y="0px"
   x="0px"
   id="Artwork"
   version="1.1"><metadata
     id="metadata61"><rdf:RDF><cc:Work
         rdf:about=""><dc:format>image/svg+xml</dc:format><dc:type
           rdf:resource="http://purl.org/dc/dcmitype/StillImage" /><dc:title></dc:title></cc:Work></rdf:RDF></metadata><defs
     id="defs59" /><style
     id="style3"
     type="text/css">
	.st0{fill:#EF3340;}
</style><path
     class="st0"
     d="m 207.5,45.3 c 0,0 -41.5,-65.3 -87.8,-39.1 -57.4,32.6 -4.8,134.9 -4.8,134.9 0,0 -21.1,-76 26.4,-96.9 31,-13.6 66.2,1.1 66.2,1.1 z"
     id="path7"
     style="fill:#ef3340" /><path
     class="st0"
     d="m 179.4,2.9 c 0,0 113,23.3 99.2,93 -10.1,50.6 -66.7,56.4 -66.7,56.4 0,0 45.2,-40.5 16.5,-94.6 -18.2,-33.9 -49,-54.8 -49,-54.8 z"
     id="path9"
     style="fill:#ef3340" /><path
     class="st0"
     d="m 266.1,141.3 c 0,0 -59.7,90.9 -109.7,52.3 -38.8,-30 -37.4,-88.8 -37.4,-88.8 0,0 26.9,56.8 78.3,59.7 37.2,1.8 68.8,-23.2 68.8,-23.2 z"
     id="path11"
     style="fill:#ef3340" /><path
     class="st0"
     d="m 148.8,129.4 c 0,0 -49.4,-49.2 -5,-74.4 30.6,-17.4 72.5,3.1 72.5,3.1 0,0 -49.6,-0.6 -63.4,30.4 -9.1,20.4 -4.1,40.9 -4.1,40.9 z"
     id="path13"
     style="fill:#ef3340" /><path
     class="st0"
     d="m 170.5,79.6 c 0,0 54.8,-31.8 56.2,10.7 1.4,36.2 -30,62.4 -30,62.4 0,0 27.1,-35.3 8.9,-57.9 C 194,80.8 170.5,79.6 170.5,79.6 Z"
     id="path15"
     style="fill:#ef3340" /><path
     class="st0"
     d="m 199.6,125.4 c 0,0 -6.4,34.1 -30.8,19.2 -19.8,-12.2 -10.1,-47.3 -10.1,-47.3 0,0 1,29.5 20.5,35.7 9.9,3 20.4,-7.6 20.4,-7.6 z"
     id="path17"
     style="fill:#ef3340" /><path
     class="st0"
     d="m 180.6,124.4 c 0,0 18.4,-2.1 14.7,-18.4 -3.7,-16.7 -31,-15.3 -31,-15.3 0,0 18.6,6.2 21.1,19.8 1.4,8.1 -4.8,13.9 -4.8,13.9 z"
     id="path19"
     style="fill:#ef3340" /><g
     id="g21"><path
       id="path23"
       d="M343.4,272.3c-1,0.8-2.3,1.2-3.9,1.2c-1.8,0-3.3-0.6-4.3-1.7c-1.1-1.1-1.6-2.7-1.7-4.9h18.5v-2   c0-4.4-1.2-7.9-3.6-10.6c-2.4-2.6-5.4-4-9.1-4s-6.7,1.3-9.1,4c-2.4,2.6-3.6,6.2-3.6,10.6c0,4.4,1.2,7.9,3.6,10.6   c2.4,2.6,5.6,4,9.4,4c4.8,0,8.5-2,11.3-6.1l-5.3-3.4C344.9,270.9,344.1,271.7,343.4,272.3z M335.2,257.8c1.1-1.1,2.4-1.6,4.1-1.6   c1.8,0,3.2,0.5,4.3,1.5c1,1,1.6,2.4,1.8,4.1h-11.9C333.5,260.2,334.1,258.9,335.2,257.8z"
       class="st0" /><path
       id="path25"
       d="M25,278.6l-2.1-6H9l-2.1,6H0l13.1-36.4h6l13.1,36.4H25z M15.9,252.6L11,266.8h9.9l-4.9-14.2H15.9z"
       class="st0" /><path
       id="path27"
       d="M36.5,278.6v-27.5h6.4v2.9h0.1c0.5-1,1.3-1.9,2.3-2.5c1-0.6,2.1-0.9,3.4-0.9c0.9,0,1.7,0.2,2.5,0.5l-1,6.5   c-0.8-0.3-1.5-0.4-2.1-0.4c-3.2,0-4.7,2.1-4.7,6.3v15.1L36.5,278.6L36.5,278.6z"
       class="st0" /><path
       id="path29"
       d="M55.7,278.6v-37.9h6.8v13h0.1c0.1-0.1,0.2-0.2,0.3-0.4c0.1-0.2,0.4-0.4,0.8-0.8c0.4-0.4,0.9-0.7,1.4-1   s1.2-0.6,2-0.8s1.7-0.4,2.6-0.4c3.4,0,6.2,1.3,8.4,4s3.4,6.2,3.4,10.5c0,4.4-1.1,8-3.2,10.6c-2.2,2.6-5.1,3.9-8.7,3.9   c-1.5,0-2.8-0.3-4.1-0.9c-1.2-0.6-2-1.1-2.5-1.7l-0.7-0.9h-0.1v2.6H55.7z M62.5,262.3v5c0,1.7,0.5,3.1,1.6,4.2   c1.1,1.2,2.5,1.7,4.3,1.7c2,0,3.5-0.7,4.6-2.2c1.1-1.4,1.6-3.5,1.6-6.3c0-2.8-0.5-4.9-1.6-6.3c-1.1-1.4-2.6-2.1-4.6-2.1   c-1.8,0-3.3,0.6-4.3,1.7C63,259.2,62.5,260.6,62.5,262.3z"
       class="st0" /><rect
       id="rect31"
       height="27.5"
       width="6.8"
       class="st0"
       y="251.1"
       x="117.4" /><path
       id="path33"
       d="M149.1,278.6V276H149c-0.2,0.2-0.4,0.6-0.8,0.9c-0.3,0.4-1.1,0.9-2.4,1.5c-1.3,0.6-2.6,1-4.1,1   c-3.6,0-6.5-1.3-8.7-3.9c-2.2-2.6-3.2-6.2-3.2-10.6c0-4.5,1.2-8,3.5-10.6c2.4-2.6,5.1-3.9,8.3-3.9c1.5,0,2.8,0.3,3.9,0.9   c1.2,0.6,1.9,1.1,2.4,1.7l0.7,0.9h0.1v-13h6.8v37.9H149.1z M148.7,267.3v-5c0-1.7-0.5-3.1-1.6-4.2c-1.1-1.1-2.5-1.7-4.3-1.7   c-2,0-3.5,0.7-4.6,2.1c-1.1,1.4-1.6,3.5-1.6,6.3c0,2.8,0.5,4.9,1.6,6.3c1.1,1.4,2.6,2.2,4.6,2.2c1.8,0,3.3-0.6,4.3-1.7   C148.2,270.4,148.7,269,148.7,267.3z"
       class="st0" /><path
       id="path35"
       d="M191.4,278.6v-27.5h6.4v2.9h0.1c0.5-1,1.3-1.9,2.3-2.5c1-0.6,2.1-0.9,3.4-0.9c0.9,0,1.7,0.2,2.5,0.5l-1,6.5   c-0.8-0.3-1.5-0.4-2.1-0.4c-3.2,0-4.7,2.1-4.7,6.3v15.1L191.4,278.6L191.4,278.6z"
       class="st0" /><path
       id="path37"
       d="M210.7,290.3v-39.2h6.4v2.6h0.1c0.1-0.1,0.2-0.2,0.3-0.4c0.1-0.2,0.4-0.4,0.8-0.8c0.4-0.4,0.9-0.7,1.4-1   c0.5-0.3,1.2-0.6,2.1-0.8c0.9-0.2,1.8-0.4,2.8-0.4c3.3,0,6.1,1.3,8.5,3.9c2.4,2.6,3.7,6.2,3.7,10.6c0,4.5-1.2,8.1-3.5,10.6   c-2.4,2.6-5.2,3.9-8.6,3.9c-1,0-1.9-0.1-2.8-0.4c-0.8-0.2-1.5-0.5-2.1-0.9c-0.5-0.3-1-0.7-1.4-1c-0.4-0.3-0.7-0.6-0.8-0.9l-0.2-0.4   h-0.1v14.3L210.7,290.3L210.7,290.3z M217.4,262v5.7c0,1.6,0.5,2.9,1.6,4c1.1,1.1,2.5,1.6,4.3,1.6c2,0,3.6-0.7,4.9-2.2   c1.3-1.5,1.9-3.5,1.9-6.3c0-2.7-0.6-4.8-1.9-6.3c-1.2-1.5-2.9-2.2-4.9-2.2c-1.8,0-3.2,0.5-4.3,1.6C218,259.1,217.4,260.4,217.4,262   z"
       class="st0" /><path
       id="path39"
       d="M258.3,278.6V276h-0.1c-0.1,0.1-0.2,0.2-0.3,0.4c-0.1,0.2-0.4,0.4-0.8,0.8c-0.4,0.4-0.9,0.7-1.4,1   c-0.5,0.3-1.2,0.6-2.1,0.8c-0.9,0.2-1.9,0.4-2.9,0.4c-3.3,0-5.8-0.8-7.5-2.4c-1.6-1.6-2.5-3.5-2.5-5.8c0-2.4,0.7-4.2,2.1-5.5   c1.4-1.2,3.8-2.3,7.2-3.1c3.2-0.8,5.1-1.4,5.9-1.8c0.8-0.5,1.2-1.1,1.2-1.9s-0.4-1.5-1.2-2.1c-0.8-0.6-1.9-0.8-3.5-0.8   c-1.8,0-3.2,0.4-3.9,1.2c-0.8,0.8-1.4,1.9-1.9,3.3l-5.6-2.3c0.7-2.3,1.9-4.2,3.8-5.7c1.9-1.5,4.4-2.2,7.5-2.2   c3.4,0,6.1,0.9,8.3,2.6c2.1,1.8,3.2,4.5,3.2,8.2v17.5H258.3z M251.5,267.3c-1.7,0.4-2.9,0.9-3.4,1.5c-0.5,0.6-0.8,1.2-0.8,1.9   c0,1.9,1.4,2.8,4.1,2.8c2,0,3.6-0.4,4.6-1.2c1-0.8,1.5-1.7,1.5-2.9v-4.8h-0.1c-0.1,0.3-0.3,0.5-0.4,0.6s-0.7,0.4-1.6,0.8   C254.4,266.5,253.1,266.9,251.5,267.3z"
       class="st0" /><path
       id="path41"
       d="M178.7,278.6V276h-0.1c-0.1,0.1-0.2,0.2-0.3,0.4c-0.1,0.2-0.4,0.4-0.8,0.8c-0.4,0.4-0.9,0.7-1.4,1   c-0.5,0.3-1.2,0.6-2.1,0.8c-0.9,0.2-1.9,0.4-2.9,0.4c-3.3,0-5.8-0.8-7.5-2.4c-1.6-1.6-2.5-3.5-2.5-5.8c0-2.4,0.7-4.2,2.1-5.5   c1.4-1.2,3.8-2.3,7.2-3.1c3.2-0.8,5.1-1.4,5.9-1.8c0.8-0.5,1.2-1.1,1.2-1.9s-0.4-1.5-1.2-2.1c-0.8-0.6-1.9-0.8-3.5-0.8   c-1.8,0-3.2,0.4-3.9,1.2c-0.8,0.8-1.4,1.9-1.9,3.3l-5.6-2.3c0.7-2.3,1.9-4.2,3.8-5.7c1.9-1.5,4.4-2.2,7.5-2.2   c3.4,0,6.1,0.9,8.3,2.6c2.1,1.8,3.2,4.5,3.2,8.2v17.5H178.7z M171.9,267.3c-1.7,0.4-2.9,0.9-3.4,1.5c-0.5,0.6-0.8,1.2-0.8,1.9   c0,1.9,1.4,2.8,4.1,2.8c2,0,3.6-0.4,4.6-1.2c1-0.8,1.5-1.7,1.5-2.9v-4.8h-0.1c-0.1,0.3-0.3,0.5-0.4,0.6s-0.7,0.4-1.6,0.8   C174.8,266.5,173.5,266.9,171.9,267.3z"
       class="st0" /><path
       id="path43"
       d="M270.9,278.6v-27.5h6.4v2.9h0.1c0.5-1,1.3-1.9,2.3-2.5c1-0.6,2.1-0.9,3.4-0.9c0.9,0,1.7,0.2,2.5,0.5l-1,6.5   c-0.8-0.3-1.5-0.4-2.1-0.4c-3.2,0-4.7,2.1-4.7,6.3v15.1L270.9,278.6L270.9,278.6z"
       class="st0" /><path
       id="path45"
       d="M294.2,268.8v-12h-4.3v-5.7h4.4v-6.8h6.4v6.8h7v5.7h-6.9v11.4c0,1.5,0.2,2.5,0.7,3.1c0.5,0.6,1.5,0.9,3,0.9   h2.2v6.5h-2.9c-3.7,0-6.3-0.8-7.6-2.3C294.9,274.7,294.2,272.2,294.2,268.8z"
       class="st0" /><rect
       id="rect47"
       height="27.5"
       width="6.8"
       class="st0"
       y="251.1"
       x="314.1" /><path
       id="path49"
       d="M359,268.8v-12h-4.3v-5.7h4.4v-6.8h6.4v6.8h7v5.7h-6.9v11.4c0,1.5,0.2,2.5,0.7,3.1c0.5,0.6,1.5,0.9,3,0.9h2.2   v6.5h-2.9c-3.7,0-6.3-0.8-7.6-2.3C359.7,274.7,359,272.2,359,268.8z"
       class="st0" /><circle
       id="circle51"
       r="3.8"
       cy="244.6"
       cx="120.7"
       class="st0" /><circle
       id="circle53"
       r="3.8"
       cy="244.6"
       cx="317.4"
       class="st0" /><path
       id="path55"
       d="M103.1,272.3c-1,0.8-2.3,1.2-3.9,1.2c-1.8,0-3.3-0.6-4.3-1.7c-1.1-1.1-1.6-2.7-1.7-4.9h18.5v-2   c0-4.4-1.2-7.9-3.6-10.6c-2.4-2.6-5.4-4-9.1-4s-6.7,1.3-9.1,4c-2.4,2.6-3.6,6.2-3.6,10.6c0,4.4,1.2,7.9,3.6,10.6   c2.4,2.6,5.6,4,9.4,4c4.8,0,8.5-2,11.3-6.1l-5.3-3.4C104.7,270.9,103.9,271.7,103.1,272.3z M95,257.8c1.1-1.1,2.4-1.6,4.1-1.6   c1.8,0,3.2,0.5,4.3,1.5c1,1,1.6,2.4,1.8,4.1H93.2C93.3,260.2,93.9,258.9,95,257.8z"
       class="st0" /></g></svg>