<?xml version="1.0" encoding="UTF-8"?>
<svg id="svg2" xmlns="http://www.w3.org/2000/svg" version="1.1" xmlns:cc="http://creativecommons.org/ns#" xmlns:dc="http://purl.org/dc/elements/1.1/" xmlns:rdf="http://www.w3.org/1999/02/22-rdf-syntax-ns#" xmlns:svg="http://www.w3.org/2000/svg" viewBox="0 0 400 500">
  <!-- Generator: Adobe Illustrator 29.4.0, SVG Export Plug-In . SVG Version: 2.1.0 Build 152)  -->
  <defs>
    <style>
      .st0, .st1 {
        fill: #cc241d;
      }

      .st1, .st2 {
        fill-rule: evenodd;
        stroke: #000;
      }

      .st2 {
        fill: #fabd2f;
      }
    </style>
  </defs>
  <path id="path4148" class="st0" d="M199.95,499.63c-74.32-53.92-125.26-122.02-155.74-208.16C16.57,213.37,5.48,118.72,10.3,2.12l.02-.46h379.82l.02.46c4.81,116.6-6.28,211.24-33.91,289.35-30.48,86.14-81.42,154.24-155.74,208.16l-.28.2-.28-.2Z"/>
  <path id="path10" d="M389.46,1.71c9.07,219.45-36.25,385.95-189.45,497.1-84.47-61.29-136.15-139.41-163.99-233.97-2.09-7.09-4.04-14.27-5.87-21.54-11.45-45.69-17.77-95.02-19.88-147.94-1.2-30.06-1.05-61.28.29-93.65h378.9M390.38.76H9.64l-.04.92c-4.82,116.66,6.28,211.36,33.93,289.52,30.51,86.24,81.51,154.41,155.91,208.39l.56.41.56-.41c74.4-53.98,125.4-122.15,155.91-208.39,27.65-78.16,38.75-172.86,33.93-289.52l-.04-.92h.02Z"/>
  <path id="path4243" class="st2" d="M200,31.16c-22.53,0-45.8,16.5-44.75,50.21.8,25.42,14.04,53.63,27.42,75.16l-16.54,12.07c-15.96-19.14-37.79-39.79-60.91-48.48-31.57-11.86-54.69,4.85-61.95,26.18-7.26,21.33.86,48.68,33.11,58.54,24.32,7.44,55.29,3.99,79.99-1.73l5.4,18.29c-23.16,10.32-49.94,26.24-64.87,46.83-19.79,27.31-9.78,54.03,8.87,66.67,18.65,12.64,47.17,12.04,65.21-16.46,13.23-20.89,18.19-50.56,19.39-75.47h19.26c1.19,24.91,6.16,54.58,19.39,75.47,18.04,28.5,46.56,29.1,65.21,16.46,18.65-12.64,28.66-39.36,8.87-66.67-14.92-20.6-41.71-36.52-64.87-46.83l5.4-18.29c24.7,5.73,55.66,9.17,79.99,1.73,32.25-9.86,40.37-37.21,33.11-58.54-7.26-21.33-30.38-38.04-61.95-26.18-23.12,8.69-44.95,29.33-60.91,48.48l-16.54-12.07c13.38-21.53,26.62-49.74,27.42-75.16,1.06-33.71-22.22-50.21-44.75-50.21"/>
  <path id="path4251" class="st1" d="M181.01,83.4c-.03-11.45,4.91-23.4,18.99-23.4s19.02,11.94,18.99,23.4c-.04,17.1-6.63,34.68-18.99,51.6-12.36-16.92-18.95-34.5-18.99-51.6Z"/>
  <path id="path4255" class="st1" d="M86.6,181.11c-10.85-3.66-20.57-12.19-16.03-25.51,4.53-13.32,17.43-14.15,28.27-10.43,16.18,5.55,30.7,17.45,42.73,34.6-20,6.25-38.76,6.82-54.97,1.35h0Z"/>
  <path id="path4259" class="st1" d="M150.8,302.32c-6.4,9.5-17.2,16.61-28.84,8.71-11.65-7.9-9.04-20.56-2.59-30.02,9.63-14.13,24.94-24.99,44.67-32.06.74,20.94-3.67,39.19-13.24,53.37Z"/>
  <path id="path4263" class="st1" d="M313.4,181.11c10.85-3.66,20.57-12.19,16.03-25.51-4.53-13.32-17.43-14.15-28.27-10.43-16.18,5.55-30.7,17.45-42.73,34.6,20,6.25,38.76,6.82,54.97,1.35h0Z"/>
  <path id="path4265" class="st1" d="M249.2,302.32c6.4,9.5,17.2,16.61,28.84,8.71,11.65-7.9,9.04-20.56,2.59-30.02-9.63-14.13-24.94-24.99-44.67-32.06-.74,20.94,3.67,39.19,13.24,53.37Z"/>
  <path id="path4272" class="st1" d="M187.69,216.37l-8.54-25.84,20.84-15.11,20.84,15.11-8.54,25.84h-24.61Z"/>
</svg>