<?xml version="1.0" encoding="UTF-8" standalone="no"?>
<svg xmlns:dc="http://purl.org/dc/elements/1.1/" xmlns:cc="http://web.resource.org/cc/" xmlns:rdf="http://www.w3.org/1999/02/22-rdf-syntax-ns#" xmlns:svg="http://www.w3.org/2000/svg" xmlns="http://www.w3.org/2000/svg" xmlns:sodipodi="http://sodipodi.sourceforge.net/DTD/sodipodi-0.dtd" xmlns:inkscape="http://www.inkscape.org/namespaces/inkscape" width="64.839996mm" height="34.110001mm" id="svg2" sodipodi:version="0.32" inkscape:version="0.45" inkscape:output_extension="org.inkscape.output.emf.win32" sodipodi:docbase="C:\Documents and Settings\Sigurd\Programdata\Opera\Opera\profile\cache4\temporary_download" sodipodi:docname="logo_gr_y.wmf" sodipodi:modified="true">
  <metadata id="metadata23">
    <rdf:RDF>
      <cc:Work rdf:about="">
        <dc:format>image/svg+xml</dc:format>
        <dc:type rdf:resource="http://purl.org/dc/dcmitype/StillImage"/>
      </cc:Work>
    </rdf:RDF>
  </metadata>
  <defs id="defs21"/>
  <sodipodi:namedview inkscape:window-height="583" inkscape:window-width="776" inkscape:pageshadow="2" inkscape:pageopacity="0.0" guidetolerance="10.0" gridtolerance="10.0" objecttolerance="10.0" borderopacity="1.0" bordercolor="#666666" pagecolor="#ffffff" id="base" inkscape:zoom="2.6183053" inkscape:cx="114.87401" inkscape:cy="60.431103" inkscape:window-x="22" inkscape:window-y="22" inkscape:current-layer="svg2"/>
  <path style="fill: rgb(39, 60, 130); fill-opacity: 1; fill-rule: evenodd; stroke: none;" d="M 165.77837,60.130326 L 165.6384,59.948461 L 165.47044,59.766596 L 165.2605,59.59872 L 165.00857,59.444834 L 164.71464,59.290948 L 164.39273,59.16504 L 164.04283,59.039134 L 163.65093,58.927217 L 163.23104,58.815299 L 162.76917,58.731362 L 162.2793,58.647424 L 161.76144,58.577475 L 161.21558,58.521517 L 160.62774,58.465558 L 160.0259,58.423589 L 159.38208,58.4096 L 158.72425,58.381621 L 158.03844,58.381621 L 157.31063,58.381621 L 156.56883,58.39561 L 155.79904,58.423589 L 155.01525,58.451569 L 154.18947,58.493537 L 153.34969,58.549496 L 152.49593,58.619445 L 151.61416,58.689393 L 150.7184,58.773331 L 149.79465,58.871258 L 148.8429,58.969186 L 147.89115,59.095093 L 146.91142,59.220999 L 148.98286,71.182145 L 149.99059,70.804425 L 150.98433,70.440694 L 151.93608,70.062974 L 152.87383,69.685253 L 153.78358,69.307533 L 154.66534,68.929812 L 155.51911,68.552092 L 156.34489,68.160382 L 157.14268,67.782662 L 157.89848,67.404941 L 158.64028,67.027221 L 159.34009,66.6495 L 160.0259,66.27178 L 160.65574,65.908049 L 161.27157,65.544319 L 161.84542,65.180587 L 162.37728,64.816857 L 162.88114,64.467116 L 163.35702,64.117375 L 163.79089,63.767634 L 164.18279,63.431882 L 164.54669,63.110121 L 164.85461,62.788359 L 165.13453,62.480586 L 165.37247,62.172814 L 165.58242,61.879032 L 165.73637,61.585249 L 165.84834,61.319446 L 165.91833,61.053643 L 165.94632,60.801829 L 165.93232,60.564005 L 165.87633,60.326181 L 165.77837,60.130326 z " id="path4"/>
  <path style="fill: rgb(173, 195, 228); fill-opacity: 1; fill-rule: evenodd; stroke: none;" d="M 173.57427,57.276439 L 173.60227,57.472294 L 173.61626,57.682139 L 173.61626,57.905972 L 173.60227,58.115818 L 173.56028,58.339651 L 173.50429,58.577475 L 173.43431,58.80131 L 173.35033,59.039134 L 173.19637,59.416854 L 172.97243,59.808564 L 172.7205,60.200275 L 172.41258,60.605974 L 172.04868,61.011674 L 171.64279,61.431364 L 171.20891,61.851053 L 170.71904,62.270742 L 170.18718,62.704421 L 169.61333,63.1381 L 168.9975,63.571778 L 168.35367,64.005457 L 167.65386,64.439137 L 166.94005,64.886805 L 166.18425,65.320484 L 165.38647,65.754163 L 164.56069,66.187843 L 163.70692,66.607532 L 162.82515,67.041211 L 161.9014,67.4609 L 160.96365,67.8666 L 159.99791,68.286289 L 159.00418,68.677998 L 157.98245,69.069709 L 156.93273,69.461419 L 155.86902,69.839139 L 154.7913,70.20287 L 153.6856,70.552611 L 152.5659,70.902352 L 151.41821,71.224114 L 150.27052,71.545876 L 149.09484,71.839658 L 149.27679,72.888882 L 151.55818,72.748985 L 153.83956,72.58111 L 156.13495,72.399244 L 158.44433,72.20339 L 160.7677,71.979555 L 163.09108,71.741731 L 165.44245,71.489917 L 167.79382,71.196135 L 170.15919,70.902352 L 172.53855,70.566601 L 174.93191,70.21686 L 177.32527,69.839139 L 179.74662,69.433439 L 182.15397,68.99976 L 184.58932,68.538103 L 187.02467,68.048465 L 189.46001,67.530848 L 191.90936,66.985252 L 194.3727,66.411676 L 196.83603,65.796132 L 199.31337,65.152608 L 201.79071,64.481105 L 204.26805,63.781624 L 206.75937,63.040172 L 209.25071,62.256752 L 211.75604,61.445353 L 214.26136,60.591984 L 216.76669,59.696647 L 219.28601,58.773331 L 221.80534,57.808045 L 224.32466,56.800791 L 226.84399,55.751567 L 216.51476,1.5277058 L 215.00316,2.5349601 L 213.47757,3.5282249 L 211.95199,4.4935104 L 210.42639,5.4587959 L 208.87281,6.4100917 L 207.33322,7.3473978 L 205.77964,8.2707143 L 204.21206,9.1660516 L 202.64447,10.061389 L 201.0769,10.942736 L 199.50932,11.796105 L 197.94173,12.635484 L 196.36016,13.474862 L 194.77858,14.286262 L 193.21101,15.083671 L 191.62943,15.867092 L 190.06185,16.622532 L 188.49427,17.377973 L 186.92669,18.105434 L 185.37311,18.818906 L 183.80553,19.518388 L 182.25194,20.189891 L 180.71236,20.847404 L 179.17277,21.490928 L 177.64718,22.120462 L 176.12159,22.722017 L 174.60999,23.309582 L 173.11239,23.869167 L 171.62879,24.428753 L 170.14519,24.94637 L 168.68958,25.463988 L 167.23397,25.953624 L 173.57427,57.276439 z " id="path6"/>
  <path style="fill: rgb(39, 60, 130); fill-opacity: 1; fill-rule: evenodd; stroke: none;" d="M 165.6104,20.483674 L 165.34448,19.756212 L 165.03656,19.014761 L 164.67265,18.2873 L 164.25277,17.559838 L 163.79089,16.832377 L 163.27303,16.104915 L 162.68519,15.391443 L 162.05535,14.677971 L 161.35555,13.992479 L 160.58575,13.306986 L 159.75998,12.635484 L 158.86422,11.97797 L 157.89848,11.348436 L 156.84875,10.732892 L 155.74305,10.131337 L 154.55337,9.5577617 L 153.27971,9.0121655 L 151.92208,8.4945486 L 150.49446,8.0049111 L 148.96887,7.5432528 L 147.3593,7.1095738 L 145.66575,6.7178638 L 143.87424,6.3541331 L 141.99874,6.0323712 L 140.01127,5.7385887 L 137.93983,5.5007648 L 135.75641,5.3049097 L 133.47502,5.1510237 L 131.09566,5.0391065 L 128.60432,4.983148 L 126.00102,4.9691583 L 123.29975,5.0111272 L 123.31375,4.9971375 L 119.57675,5.1090548 L 115.86775,5.2909201 L 112.17273,5.5147544 L 108.49172,5.7805576 L 104.82471,6.1163091 L 101.17168,6.5080191 L 97.518663,6.9416981 L 93.879638,7.4313357 L 90.240613,7.9909215 L 86.615585,8.5924762 L 82.976561,9.2499895 L 79.337537,9.9634613 L 75.698512,10.746881 L 72.059488,11.57227 L 68.392471,12.467608 L 64.739451,13.418903 L 61.058438,14.426158 L 57.363428,15.489371 L 53.654423,16.622532 L 49.917425,17.811652 L 46.16643,19.05673 L 42.40144,20.371757 L 38.59446,21.742742 L 34.773485,23.183675 L 30.910521,24.680567 L 27.03356,26.233418 L 23.100614,27.856216 L 19.139676,29.548964 L 15.150746,31.297669 L 11.10583,33.116323 L 7.0329221,35.004925 L 2.9040291,36.949485 L 16.732321,111.30445 L 17.712059,110.59097 L 18.719789,109.86351 L 19.769508,109.10807 L 20.861214,108.33864 L 21.994911,107.54123 L 23.156599,106.72984 L 24.360277,105.89046 L 25.605942,105.03709 L 26.879601,104.15574 L 28.195249,103.2604 L 29.552884,102.35107 L 30.952509,101.41376 L 32.394122,100.44848 L 33.877725,99.483194 L 35.38932,98.475941 L 36.956899,97.468687 L 38.314535,96.58734 L 39.686168,95.719981 L 41.043803,94.852624 L 42.40144,93.999255 L 45.102715,92.334488 L 47.789994,90.711688 L 50.435286,89.144849 L 53.052584,87.633967 L 55.613897,86.165054 L 58.119226,84.7521 L 60.554573,83.409095 L 62.933935,82.108057 L 65.215323,80.876969 L 67.42673,79.701838 L 69.526168,78.596657 L 71.52763,77.561423 L 73.417124,76.596137 L 75.194647,75.7008 L 76.67825,74.945359 L 78.147856,74.203909 L 79.631458,73.476447 L 81.11506,72.762975 L 82.584666,72.049503 L 84.068268,71.364011 L 85.551871,70.678518 L 87.021476,70.007015 L 88.505079,69.349501 L 89.988681,68.691989 L 91.458287,68.062455 L 92.94189,67.43292 L 94.425491,66.817376 L 95.895098,66.215822 L 97.3787,65.628257 L 98.848306,65.040692 L 100.33191,64.467116 L 101.80152,63.90753 L 103.27112,63.361934 L 104.74072,62.816338 L 106.21033,62.298721 L 107.67993,61.781104 L 109.14955,61.277477 L 110.61915,60.77385 L 112.07476,60.284212 L 113.54437,59.808564 L 114.99997,59.346906 L 116.45558,58.899237 L 117.9112,58.451569 L 119.36681,58.01789 L 120.82241,57.598201 L 122.26402,57.178512 L 123.57967,56.772812 L 124.92331,56.395091 L 126.30895,56.017371 L 127.73656,55.65364 L 129.19217,55.303899 L 130.67577,54.968147 L 132.18736,54.646385 L 133.72695,54.352603 L 135.29454,54.05882 L 136.87611,53.793017 L 138.48568,53.541204 L 140.10924,53.30338 L 141.73281,53.093535 L 143.38436,52.89768 L 145.03593,52.729804 L 146.70148,52.575918 L 148.17108,52.464001 L 149.6127,52.352084 L 151.01232,52.282136 L 152.38395,52.212187 L 153.71359,52.156228 L 155.01525,52.128249 L 156.27491,52.128249 L 157.49258,52.128249 L 158.68227,52.156228 L 159.82995,52.184208 L 160.93566,52.254157 L 161.99938,52.324104 L 163.0211,52.408042 L 164.00084,52.51996 L 164.93859,52.645866 L 165.83434,52.785763 L 166.68812,52.953639 L 167.4859,53.121514 L 168.25569,53.317369 L 168.95551,53.527214 L 169.62733,53.751048 L 170.24317,53.988872 L 170.80302,54.240685 L 171.32088,54.520479 L 171.79674,54.814261 L 172.20264,55.108044 L 172.56654,55.429806 L 172.87446,55.765557 L 173.14039,56.129288 L 173.33633,56.493018 L 173.49029,56.870739 L 173.57427,57.276439 L 167.23397,25.953624 L 165.6244,20.469685 L 165.6104,20.483674 z " id="path8"/>
  <path style="fill: rgb(39, 60, 130); fill-opacity: 1; fill-rule: evenodd; stroke: none;" d="M 99.282189,99.371276 L 99.282189,99.259359 L 99.282189,98.993559 L 99.282189,98.503921 L 99.282189,97.734491 L 99.282189,96.601329 L 99.282189,95.048478 L 99.282189,93.005991 L 99.296186,92.446405 L 99.352171,91.928788 L 99.436148,91.43915 L 99.548118,90.977492 L 99.688081,90.557803 L 99.856036,90.152103 L 100.03799,89.788372 L 100.24793,89.452621 L 100.47187,89.144849 L 100.70981,88.851066 L 100.97573,88.599252 L 101.24167,88.361428 L 101.52159,88.137595 L 101.80152,87.941739 L 102.09543,87.773863 L 102.37536,87.619977 L 102.66928,87.480081 L 102.96321,87.368163 L 103.24313,87.256247 L 103.52306,87.172309 L 103.78898,87.10236 L 104.04091,87.032412 L 104.29285,86.990444 L 104.51678,86.948474 L 105.2166,86.864536 L 105.48253,86.850547 L 105.48253,87.200288 L 105.48253,88.207542 L 105.48253,89.788372 L 105.48253,91.816871 L 105.48253,94.23708 L 105.48253,96.923091 L 105.48253,99.804958 L 105.48253,102.77076 L 105.48253,105.73657 L 105.48253,108.61843 L 105.48253,111.30445 L 105.48253,113.71066 L 105.48253,115.75315 L 105.48253,117.31999 L 105.48253,118.34124 L 105.48253,118.69097 L 105.2306,118.69097 L 104.53078,118.69097 L 103.53705,118.69097 L 102.40336,118.69097 L 101.25566,118.69097 L 100.24793,118.69097 L 99.548118,118.69097 L 99.282189,118.69097 L 99.282189,104.46351 L 87.777274,104.46351 L 87.777274,104.56144 L 87.777274,104.86921 L 87.777274,105.4148 L 87.777274,106.22621 L 87.777274,107.3174 L 87.777274,108.70237 L 87.777274,110.43709 L 87.777274,112.53553 L 87.763278,113.08113 L 87.707293,113.59875 L 87.623315,114.08839 L 87.511345,114.53606 L 87.371383,114.95574 L 87.203428,115.34745 L 87.021476,115.71119 L 86.811533,116.04693 L 86.587593,116.36869 L 86.33566,116.64849 L 86.083728,116.91429 L 85.8178,117.15212 L 85.537875,117.36196 L 85.25795,117.55781 L 84.964029,117.72569 L 84.670107,117.87958 L 84.390182,118.01947 L 84.096261,118.14538 L 83.816336,118.2573 L 83.536411,118.34124 L 83.270482,118.42518 L 83.01855,118.48114 L 82.766617,118.5371 L 82.542677,118.57906 L 82.150783,118.64901 L 81.842866,118.67699 L 81.646918,118.69097 L 81.576937,118.69097 L 81.576937,118.46714 L 81.576937,117.83761 L 81.576937,116.84435 L 81.576937,115.54331 L 81.576937,113.97647 L 81.576937,112.18579 L 81.576937,110.22724 L 81.576937,108.15678 L 81.576937,106.00237 L 81.576937,103.83397 L 81.576937,101.69356 L 81.576937,99.609098 L 81.576937,97.664542 L 81.576937,95.873867 L 81.576937,94.307027 L 81.576937,93.005991 L 81.590933,92.446405 L 81.646918,91.928788 L 81.730896,91.43915 L 81.842866,90.977492 L 81.982828,90.557803 L 82.150783,90.152103 L 82.332733,89.788372 L 82.542677,89.452621 L 82.766617,89.144849 L 83.01855,88.851066 L 83.270482,88.599252 L 83.536411,88.361428 L 83.816336,88.137595 L 84.096261,87.941739 L 84.390182,87.773863 L 84.670107,87.619977 L 84.964029,87.480081 L 85.25795,87.368163 L 85.537875,87.256247 L 85.8178,87.172309 L 86.083728,87.10236 L 86.33566,87.032412 L 86.587593,86.990444 L 86.811533,86.948474 L 87.511345,86.864536 L 87.777274,86.850547 L 87.777274,99.39926 L 99.282189,99.39926 L 99.282189,99.371276 z " id="path10"/>
  <path style="fill: rgb(39, 60, 130); fill-opacity: 1; fill-rule: evenodd; stroke: none;" d="M 155.82703,86.850547 L 161.39754,97.916356 L 167.47191,86.850547 L 174.74996,86.850547 L 164.67265,104.08579 L 164.67265,104.25367 L 164.67265,104.77128 L 164.67265,105.59667 L 164.67265,106.70185 L 164.67265,108.05885 L 164.67265,109.62569 L 164.67265,111.38838 L 164.67265,113.30497 L 164.65867,113.78061 L 164.60268,114.22828 L 164.5187,114.66196 L 164.40673,115.05367 L 164.26677,115.4174 L 164.09882,115.76715 L 163.91687,116.0889 L 163.70692,116.38268 L 163.48298,116.64849 L 163.23104,116.90031 L 162.97912,117.12414 L 162.71318,117.33398 L 162.43325,117.52984 L 162.15333,117.69772 L 161.85942,117.85159 L 161.57949,117.97751 L 161.28557,118.10341 L 160.99164,118.21533 L 160.71172,118.29926 L 160.43179,118.38321 L 159.91393,118.50911 L 159.43806,118.59305 L 158.73825,118.67699 L 158.47232,118.69097 L 158.47232,104.08579 L 148.57698,86.850547 L 155.82703,86.850547 z " id="path12"/>
  <path style="fill: rgb(39, 60, 130); fill-opacity: 1; fill-rule: evenodd; stroke: none;" d="M 185.84898,91.928788 L 186.70276,91.928788 L 187.30459,91.928788 L 187.89243,91.956767 L 188.17236,91.984747 L 188.45228,92.012726 L 188.73221,92.054694 L 188.99813,92.096664 L 189.25007,92.152623 L 189.502,92.22257 L 189.73993,92.292518 L 189.97787,92.362467 L 190.20181,92.460394 L 190.42576,92.558322 L 190.6357,92.670239 L 190.83165,92.782156 L 191.02759,92.922053 L 191.19555,93.06195 L 191.36351,93.229825 L 191.53146,93.397701 L 191.67142,93.579566 L 191.81138,93.775421 L 191.93735,93.985266 L 192.04932,94.2091 L 192.14729,94.446924 L 192.24527,94.712727 L 192.31525,94.97853 L 192.38523,95.272313 L 192.42722,95.580085 L 192.46921,95.901847 L 192.4832,96.237599 L 192.4972,96.601329 L 192.4832,96.95107 L 192.46921,97.300811 L 192.42722,97.622573 L 192.38523,97.930345 L 192.31525,98.224127 L 192.24527,98.503921 L 192.16128,98.755735 L 192.06331,99.00755 L 191.95135,99.245372 L 191.82538,99.455219 L 191.69941,99.665057 L 191.54546,99.860917 L 191.3915,100.04278 L 191.22354,100.21066 L 191.04158,100.36454 L 190.85963,100.50444 L 190.66369,100.64434 L 190.45375,100.77024 L 190.22981,100.88216 L 190.00587,100.98009 L 189.76793,101.06402 L 189.52999,101.14797 L 189.27806,101.21791 L 189.01213,101.28786 L 188.74621,101.34382 L 188.46628,101.38579 L 188.17236,101.42776 L 187.89243,101.45573 L 187.2766,101.49771 L 186.64677,101.49771 L 185.84898,101.49771 L 185.84898,91.928788 z M 192.20328,105.26092 L 192.59517,105.17698 L 192.97307,105.07905 L 193.33697,104.96713 L 193.70087,104.84123 L 194.05078,104.68734 L 194.3867,104.51946 L 194.70861,104.3376 L 195.01652,104.14175 L 195.31045,103.9319 L 195.59037,103.70807 L 195.8703,103.47025 L 196.12222,103.21843 L 196.37416,102.95263 L 196.6121,102.68682 L 196.83603,102.39304 L 197.04598,102.09926 L 197.24192,101.79149 L 197.43787,101.46972 L 197.60583,101.14797 L 197.75978,100.81221 L 197.91375,100.47646 L 198.05371,100.12672 L 198.16568,99.776974 L 198.27765,99.413248 L 198.37562,99.063508 L 198.4596,98.685786 L 198.52958,98.322056 L 198.59956,97.944335 L 198.64155,97.566615 L 198.66955,97.188894 L 198.69753,96.811173 L 198.69753,96.433453 L 198.68354,95.803919 L 198.65555,95.202364 L 198.58557,94.628789 L 198.50158,94.069204 L 198.38962,93.537597 L 198.24966,93.01998 L 198.0957,92.530342 L 197.91375,92.068685 L 197.7178,91.621015 L 197.49386,91.201326 L 197.25592,90.795626 L 196.99,90.417906 L 196.71007,90.054175 L 196.40215,89.704434 L 196.08023,89.396663 L 195.73033,89.08889 L 195.38042,88.809098 L 195.00252,88.543294 L 194.59663,88.30547 L 194.19075,88.081636 L 193.75686,87.885781 L 193.30898,87.703915 L 192.84711,87.536039 L 192.37123,87.382153 L 191.88136,87.256247 L 191.3775,87.14433 L 190.85963,87.060392 L 190.31378,86.976454 L 189.76793,86.920495 L 189.20808,86.878526 L 188.64823,86.850547 L 188.06038,86.850547 L 187.96242,86.850547 L 187.71048,86.836557 L 187.36057,86.836557 L 186.95468,86.836557 L 186.54879,86.836557 L 186.18489,86.836557 L 185.91896,86.822568 L 185.80699,86.822568 L 185.54106,86.836557 L 184.84125,86.920495 L 184.37937,87.004433 L 183.86152,87.130339 L 183.58159,87.214277 L 183.30167,87.298215 L 183.00774,87.410133 L 182.72782,87.536039 L 182.43389,87.675936 L 182.15397,87.829822 L 181.87404,88.011687 L 181.59412,88.193553 L 181.32819,88.417387 L 181.07626,88.655211 L 180.83832,88.907025 L 180.61438,89.186817 L 180.40444,89.49459 L 180.22249,89.830341 L 180.05453,90.180082 L 179.91457,90.557803 L 179.80261,90.977492 L 179.71862,91.411171 L 179.66264,91.886818 L 179.64864,92.390446 L 179.64864,93.607545 L 179.64864,95.118427 L 179.64864,96.881122 L 179.64864,98.853662 L 179.64864,100.95211 L 179.64864,103.16247 L 179.64864,105.40082 L 179.64864,107.62517 L 179.64864,109.79357 L 179.64864,111.83605 L 179.64864,113.71066 L 179.64864,115.36144 L 179.64864,116.74642 L 179.64864,117.79564 L 179.64864,118.45315 L 179.64864,118.69097 L 179.91457,118.67699 L 180.61438,118.59305 L 181.09026,118.50911 L 181.60812,118.38321 L 181.88804,118.29926 L 182.16797,118.21533 L 182.46189,118.10341 L 182.75581,117.97751 L 183.03573,117.85159 L 183.32966,117.69772 L 183.60958,117.52984 L 183.88951,117.33398 L 184.15543,117.12414 L 184.40737,116.90031 L 184.6593,116.64849 L 184.88324,116.38268 L 185.09318,116.0889 L 185.27513,115.76715 L 185.44309,115.4174 L 185.58306,115.05367 L 185.69502,114.66196 L 185.779,114.22828 L 185.83498,113.78061 L 185.84898,113.30497 L 185.84898,112.19978 L 185.84898,110.99667 L 185.84898,109.75159 L 185.84898,108.56248 L 185.84898,107.49926 L 185.84898,106.63191 L 185.84898,106.05833 L 185.84898,105.84848 L 185.94696,105.84848 L 193.67288,118.69097 L 201.18887,118.69097 L 192.20328,105.26092 z " id="path14"/>
  <path style="fill: rgb(39, 60, 130); fill-opacity: 1; fill-rule: evenodd; stroke: none;" d="M 214.1214,99.259359 L 224.00275,99.259359 L 224.00275,104.65937 L 214.1214,104.65937 L 214.1214,113.27698 L 214.23337,113.27698 L 214.55529,113.27698 L 215.07315,113.27698 L 215.73097,113.27698 L 216.50076,113.27698 L 217.36853,113.27698 L 218.29229,113.27698 L 219.25802,113.27698 L 220.20976,113.27698 L 221.14751,113.27698 L 222.01529,113.27698 L 222.78508,113.27698 L 223.4429,113.27698 L 223.94676,113.27698 L 224.26868,113.27698 L 224.39465,113.27698 L 224.36665,113.51481 L 224.29667,114.14435 L 224.25469,114.35419 L 224.1987,114.56403 L 224.14271,114.78786 L 224.07274,115.02569 L 223.98875,115.27751 L 223.89078,115.52931 L 223.77881,115.78113 L 223.63885,116.04693 L 223.48489,116.29875 L 223.31694,116.56456 L 223.12099,116.81636 L 222.91104,117.05419 L 222.67311,117.29202 L 222.42118,117.52984 L 222.12725,117.73968 L 221.81934,117.94952 L 221.46943,118.13139 L 221.10553,118.29926 L 220.69964,118.43917 L 220.26575,118.56507 L 219.80388,118.67699 L 219.30001,118.74693 L 218.76815,118.7889 L 218.19431,118.80289 L 218.06834,118.80289 L 217.73244,118.80289 L 217.22856,118.80289 L 216.57075,118.81689 L 215.78695,118.81689 L 214.91919,118.81689 L 213.98144,118.81689 L 213.0297,118.81689 L 212.07795,118.81689 L 211.1402,118.81689 L 210.27244,118.81689 L 209.50264,118.81689 L 208.84481,118.83088 L 208.34095,118.83088 L 208.01904,118.83088 L 207.90706,118.83088 L 207.90706,118.46714 L 207.90706,117.45988 L 207.90706,115.90704 L 207.90706,113.92051 L 207.90706,111.58423 L 207.90706,109.01014 L 207.90706,106.28217 L 207.90706,103.54019 L 207.90706,100.84019 L 207.90706,98.322056 L 207.90706,96.069723 L 207.90706,94.181121 L 207.90706,92.782156 L 207.90706,91.942777 L 207.90706,91.774902 L 207.90706,92.390446 L 207.92106,92.152623 L 208.00504,91.523088 L 208.04702,91.327233 L 208.10301,91.103399 L 208.173,90.879564 L 208.24297,90.641741 L 208.32695,90.389927 L 208.43892,90.138113 L 208.5509,89.87231 L 208.69086,89.620496 L 208.84481,89.354693 L 209.02676,89.10288 L 209.20872,88.837077 L 209.43266,88.599252 L 209.6706,88.347439 L 209.92252,88.123604 L 210.20245,87.899771 L 210.51037,87.703915 L 210.84627,87.50806 L 211.21018,87.340185 L 211.60207,87.200288 L 212.03596,87.074381 L 212.48384,86.962464 L 212.95971,86.892516 L 213.47757,86.850547 L 214.03742,86.822568 L 224.39465,86.850547 L 224.39465,92.264539 L 214.1214,92.264539 L 214.1214,99.259359 z " id="path16"/>
  <path style="fill: rgb(39, 60, 130); fill-opacity: 1; fill-rule: evenodd; stroke: none;" d="M 146.02965,88.627231 L 145.62376,88.641222 L 145.24586,88.655211 L 144.88196,88.68319 L 144.51806,88.711169 L 144.18215,88.753139 L 143.84624,88.809098 L 143.53833,88.865055 L 143.2304,88.935004 L 142.93649,89.004952 L 142.65656,89.074901 L 142.39063,89.158838 L 142.1387,89.242776 L 141.67683,89.410652 L 141.25694,89.592517 L 140.89304,89.774382 L 140.57112,89.942258 L 140.30519,90.110134 L 140.08125,90.26402 L 139.80133,90.473865 L 139.70335,90.557803 L 139.43743,90.305989 L 139.1575,90.068165 L 138.89157,89.816352 L 138.59765,89.592517 L 138.31772,89.368683 L 138.0238,89.144849 L 137.72988,88.935004 L 137.42196,88.72516 L 137.11405,88.529304 L 136.80613,88.333449 L 136.48421,88.151584 L 136.1763,87.969719 L 135.84039,87.801843 L 135.51847,87.647957 L 135.18256,87.494071 L 134.84665,87.340185 L 134.51075,87.200288 L 134.16084,87.074381 L 133.81094,86.948474 L 133.46102,86.836557 L 133.11112,86.73863 L 132.74721,86.640703 L 132.39731,86.542774 L 132.03341,86.472827 L 131.65551,86.402879 L 131.29161,86.33293 L 130.91371,86.290961 L 130.53581,86.248992 L 130.15791,86.207023 L 129.78001,86.179044 L 129.40211,86.165054 L 129.01022,86.165054 L 128.19844,86.193033 L 127.40065,86.248992 L 126.60286,86.360909 L 125.83307,86.500806 L 125.06327,86.682671 L 124.30748,86.906506 L 123.57967,87.172309 L 122.85187,87.466091 L 122.15206,87.801843 L 121.48024,88.165574 L 120.80842,88.571273 L 120.17859,89.004952 L 119.54876,89.46661 L 118.96091,89.956248 L 118.38707,90.473865 L 117.82722,91.019461 L 117.30936,91.607026 L 116.8055,92.20858 L 116.34361,92.838115 L 115.89573,93.481639 L 115.48985,94.153142 L 115.11195,94.852624 L 114.76204,95.566096 L 114.44012,96.293557 L 114.1602,97.048997 L 113.90827,97.818429 L 113.69832,98.601848 L 113.51637,99.413248 L 113.37641,100.22464 L 113.27843,101.05004 L 113.22245,101.9034 L 113.19446,102.74278 L 113.20846,103.13449 L 113.20846,103.49822 L 113.23645,103.87594 L 113.26445,104.25367 L 113.29243,104.61739 L 113.33442,104.98113 L 113.39041,105.34486 L 113.4464,105.70858 L 113.51637,106.07232 L 113.58636,106.42206 L 113.67033,106.78579 L 113.75431,107.13553 L 113.85228,107.47129 L 113.95026,107.82103 L 114.06222,108.15678 L 114.1742,108.49253 L 114.30016,108.82828 L 114.42613,109.16403 L 114.5661,109.48579 L 114.70606,109.80755 L 114.84602,110.12932 L 114.99997,110.45107 L 115.16793,110.75885 L 115.33588,111.06662 L 115.50384,111.3744 L 115.6858,111.66818 L 115.86775,111.96196 L 116.0497,112.25574 L 116.24565,112.54953 L 116.45558,112.82932 L 116.66553,113.1091 L 116.87547,113.37491 L 116.72151,113.5288 L 116.31562,113.9345 L 115.74177,114.49408 L 115.08395,115.1516 L 114.42613,115.79512 L 113.85228,116.36869 L 113.46038,116.76041 L 113.32042,116.91429 L 113.75431,116.91429 L 114.1602,116.90031 L 114.5521,116.88631 L 114.93,116.85834 L 115.2799,116.83035 L 115.60181,116.80238 L 115.90973,116.76041 L 116.20365,116.71843 L 116.73551,116.62051 L 117.19738,116.5086 L 117.60327,116.38268 L 117.95318,116.25678 L 118.23311,116.14486 L 118.47105,116.01896 L 118.653,115.90704 L 118.80696,115.80911 L 118.97491,115.65523 L 119.0309,115.59927 L 119.28282,115.82311 L 119.54876,116.03294 L 119.81468,116.2288 L 120.08061,116.43864 L 120.36054,116.6345 L 120.64046,116.81636 L 120.92039,116.99823 L 121.20031,117.1661 L 121.49424,117.33398 L 121.78816,117.50186 L 122.08207,117.65574 L 122.39,117.80963 L 122.68391,117.94952 L 122.99183,118.08943 L 123.31375,118.21533 L 123.62166,118.34124 L 123.94357,118.46714 L 124.26549,118.56507 L 124.58741,118.67699 L 124.90932,118.77492 L 125.23124,118.85885 L 125.56715,118.94279 L 125.90305,119.01274 L 126.23896,119.08269 L 126.57487,119.13864 L 126.92477,119.1946 L 127.26069,119.23657 L 127.6106,119.26455 L 127.9605,119.29253 L 128.31041,119.32051 L 128.66031,119.3345 L 129.01022,119.3345 L 129.822,119.30652 L 130.63379,119.25056 L 131.41757,119.13864 L 132.20136,118.99875 L 132.95716,118.81689 L 133.71296,118.59305 L 134.45476,118.32725 L 135.16856,118.03347 L 135.86838,117.69772 L 136.5542,117.33398 L 137.21202,116.92828 L 137.85585,116.4946 L 138.47169,116.03294 L 139.07352,115.54331 L 139.64736,115.02569 L 140.19322,114.4801 L 140.71109,113.90652 L 141.21495,113.30497 L 141.69082,112.67543 L 142.1247,112.01792 L 142.53059,111.34641 L 142.92249,110.64693 L 143.2724,109.93346 L 143.58031,109.206 L 143.87424,108.45056 L 144.11217,107.68112 L 144.33611,106.89771 L 144.50406,106.08631 L 144.64403,105.27491 L 144.742,104.44952 L 144.81199,103.59615 L 144.82598,102.74278 L 144.81199,102.05729 L 144.76999,101.38579 L 144.71401,100.71428 L 144.61604,100.04278 L 144.50406,99.385273 L 144.3641,98.741745 L 144.19615,98.112211 L 144.0002,97.482677 L 143.79025,96.867132 L 143.56631,96.265578 L 143.30039,95.678013 L 143.03446,95.104437 L 142.74054,94.530862 L 142.41863,93.985266 L 142.08271,93.439669 L 141.73281,92.922053 L 146.02965,88.627231 z M 129.01022,92.20858 L 129.4581,92.22257 L 129.90598,92.25055 L 130.35386,92.320498 L 130.77375,92.404436 L 131.20763,92.502363 L 131.62751,92.62827 L 132.03341,92.782156 L 132.4393,92.950032 L 132.8312,93.131897 L 133.2091,93.341742 L 133.58699,93.579566 L 133.9509,93.81739 L 134.3008,94.083193 L 134.63671,94.362986 L 134.97262,94.656769 L 135.28054,94.97853 L 121.42425,108.84227 L 121.22831,108.50652 L 121.03236,108.17076 L 120.8644,107.83501 L 120.69645,107.48527 L 120.54249,107.12154 L 120.40252,106.75781 L 120.27656,106.38009 L 120.1506,106.00237 L 120.05262,105.61066 L 119.95465,105.21895 L 119.88466,104.82724 L 119.81468,104.42154 L 119.7727,104.00185 L 119.73071,103.59615 L 119.70271,103.17647 L 119.70271,102.74278 L 119.71671,102.21118 L 119.7447,101.66558 L 119.81468,101.14797 L 119.88466,100.63035 L 119.99664,100.11273 L 120.1226,99.623095 L 120.26256,99.133454 L 120.43052,98.643817 L 120.61247,98.182159 L 120.82241,97.734491 L 121.04636,97.286821 L 121.28429,96.853143 L 121.55022,96.447443 L 121.83015,96.041743 L 122.12406,95.664023 L 122.43198,95.300292 L 122.7539,94.950551 L 123.08981,94.614799 L 123.43971,94.307027 L 123.80361,94.013245 L 124.18151,93.733452 L 124.57341,93.481639 L 124.9793,93.243815 L 125.38519,93.03397 L 125.80507,92.852104 L 126.23896,92.684229 L 126.68684,92.544332 L 127.13472,92.418426 L 127.5966,92.334488 L 128.05847,92.264539 L 128.53435,92.22257 L 129.01022,92.20858 z M 138.33172,102.74278 L 138.31772,103.28838 L 138.27574,103.81999 L 138.21975,104.35159 L 138.13577,104.86921 L 138.0378,105.38683 L 137.91184,105.87646 L 137.75787,106.3661 L 137.58992,106.85574 L 137.40796,107.3174 L 137.19802,107.76507 L 136.97409,108.21274 L 136.73615,108.64641 L 136.47022,109.05212 L 136.20429,109.44383 L 135.91037,109.83554 L 135.60245,110.19926 L 135.28054,110.549 L 134.93064,110.88476 L 134.58072,111.19253 L 134.21682,111.48631 L 133.83892,111.75211 L 133.44703,112.01792 L 133.05514,112.24175 L 132.63525,112.4516 L 132.21536,112.64745 L 131.78147,112.81532 L 131.3336,112.95523 L 130.88571,113.06714 L 130.43784,113.16506 L 129.96196,113.22102 L 129.50009,113.26299 L 129.01022,113.27698 L 128.61832,113.27698 L 128.24042,113.24901 L 127.86252,113.20703 L 127.48462,113.13709 L 127.10672,113.06714 L 126.74282,112.96921 L 126.37892,112.8573 L 126.02902,112.73139 L 125.67911,112.5775 L 125.3432,112.42361 L 125.0073,112.25574 L 124.68537,112.07387 L 124.36346,111.86403 L 124.04155,111.65419 L 123.74763,111.43035 L 123.45371,111.19253 L 137.10005,97.538635 L 137.24001,97.832418 L 137.37998,98.1262 L 137.50594,98.419983 L 137.61791,98.727755 L 137.72988,99.049521 L 137.82785,99.357289 L 137.92583,99.679054 L 138.00981,100.00081 L 138.07979,100.33656 L 138.14977,100.67231 L 138.19176,101.00806 L 138.24774,101.34382 L 138.27574,101.69356 L 138.30373,102.04331 L 138.31772,102.39304 L 138.33172,102.74278 z " id="path18"/>
</svg>