<?xml version="1.0" encoding="UTF-8"?>
<svg width="164px" height="123px" viewBox="0 0 164 123" version="1.1" xmlns="http://www.w3.org/2000/svg" xmlns:xlink="http://www.w3.org/1999/xlink">
    <title>2020 hovudlogo RGB</title>
    <g id="Page-1" stroke="none" stroke-width="1" fill="none" fill-rule="evenodd">
        <g id="Forside-Copy-3" transform="translate(-878.000000, -46.000000)" fill-rule="nonzero">
            <g id="2020-hovudlogo-RGB" transform="translate(878.000000, 46.000000)">
                <path d="M108,15.5880631 L108,14.9730862 C108,14.4918 108,14.0372518 107.870708,13.5559656 C107.723011,12.6511123 107.51566,11.7577586 107.250106,10.8821532 C106.947151,9.96239001 106.57539,9.06841697 106.138195,8.2083407 C105.26531,6.51472195 104.109761,4.99398912 102.724885,3.71633579 C101.295452,2.44477346 99.6458749,1.46490551 97.8635037,0.828618346 C96.0802594,0.181972083 94.1902657,-0.0907198434 92.3039457,0.0264746116 C90.4273151,0.105081589 88.5832134,0.559090856 86.8736798,1.36338084 C85.167682,2.16128758 83.6234013,3.28631831 82.3225998,4.67890827 C82.2214196,4.77013668 82.1263842,4.8684052 82.0381573,4.97302764 C80.4831156,3.47839857 78.6292538,2.35562467 76.6078914,1.68423833 C75.6908029,1.37600292 74.7468037,1.16107863 73.7893249,1.04252334 C72.85261,0.936315049 71.9074732,0.936315049 70.9707583,1.04252334 C70.0247684,1.1227161 69.08908,1.30188663 68.1780501,1.57728583 C67.2763095,1.86833777 66.4089506,2.2629592 65.5922092,2.75376331 C63.9933164,3.67114014 62.6007954,4.92877019 61.5065806,6.44362449 C60.5150018,7.91297347 59.8040773,9.56470325 59.4120494,11.3099631 C59.0020138,13.004747 58.8968316,14.7630431 59.1017485,16.4971593 C59.2057992,17.3332835 59.3876511,18.1570719 59.6447751,18.9570667 C59.9083547,19.7339278 60.2371476,20.4854596 60.6273947,21.2030692 C60.4999774,20.4158983 60.4222379,19.6209875 60.394669,18.8233761 C60.3930864,18.0451512 60.4449335,17.2677918 60.5498194,16.4971593 C60.7586522,15.0227972 61.2043888,13.5949084 61.8685983,12.2725356 C63.0881109,9.80645813 65.153558,7.89957012 67.6608819,6.92491073 C68.8152885,6.51231396 70.0351263,6.33082659 71.2552008,6.39014824 C71.8650944,6.42299769 72.4708963,6.51248506 73.0652894,6.65752948 C73.6342462,6.79705347 74.1885585,6.99408074 74.7202276,7.24576822 C75.7676429,7.74508582 76.7149852,8.44348389 77.5129358,9.30460381 C78.3047089,10.1814766 78.982724,11.161193 79.5298917,12.2190594 C80.1246351,13.3955369 82.1157326,16.7912787 82.1157326,16.7912787 C82.1157326,16.7912787 84.1844053,13.3687987 84.986016,12.2992738 C86.2505166,10.5206614 87.8853941,9.05861008 89.7698216,8.02117383 C90.7090433,7.62835351 91.7056754,7.40235833 92.7176803,7.35272072 C93.6988058,7.33704439 94.6761865,7.48142034 95.6138221,7.78053071 C96.5538541,8.11935819 97.4290789,8.62615838 98.199663,9.27786568 C98.9902046,9.96816221 99.6632318,10.7906178 100.19076,11.711035 C100.42944,12.1826846 100.628422,12.6746989 100.785504,13.1816319 C100.987911,13.6937678 101.15216,14.2211542 101.276814,14.7591812 C101.276814,15.0265624 101.276814,15.3206818 101.276814,15.5880631 L101.276814,16.0426112 L101.276814,16.0426112 L101.276814,16.3902068 C101.276814,16.9517074 101.276814,17.513208 101.276814,18.0747086 C101.154634,19.2466875 100.858074,20.392112 100.397628,21.4704505 C99.9191527,22.6670171 99.3303088,23.8131377 98.6392559,24.8929304 C97.8940481,26.0406685 97.0913428,27.1473534 96.2344239,28.2084578 C95.355238,29.2779828 94.4243353,30.3742459 93.4417157,31.4170328 C91.5281935,33.5293446 89.4595207,35.5881802 87.4425648,37.7807064 C86.9253966,38.3154689 86.4340869,38.8769695 85.9169187,39.4384701 C85.3997505,39.9999707 84.9342991,40.5882095 84.4947062,41.1764482 C84.0160742,41.757799 83.5672458,42.364696 83.1500689,42.9946407 C82.7285673,43.6267414 82.3649762,44.2980997 82.0640157,45 C82.5728365,44.4723551 83.1079732,43.9725621 83.6672371,43.502665 L85.3997505,42.1924969 C86.5892373,41.3368769 87.7787241,40.5347332 88.9940694,39.7593276 C91.4247598,38.128302 93.8554503,36.4972764 96.2602823,34.6790839 C97.4497691,33.7699877 98.6133975,32.8074152 99.7511675,31.7646284 C100.914171,30.6953922 102.002917,29.5428024 103.009327,28.3154103 C104.13524,27.0589868 105.123826,25.6780959 105.957186,24.1977391 C106.780238,22.6022677 107.372659,20.8906576 107.715558,19.1174955 C107.882594,18.23603 107.977743,17.341616 108,16.443683 L108,15.5880631 L108,15.5880631 Z" id="Path" fill="#00843D"></path>
                <path d="M108.733474,78.6400284 C108.628473,77.7929719 108.439852,76.9583729 108.170364,76.1484263 C107.908371,75.3655271 107.566943,74.6114457 107.151404,73.897947 C107.283791,74.695651 107.364403,75.5010746 107.392737,76.3091748 C107.430331,77.086412 107.412409,77.8653383 107.339108,78.6400284 C107.131884,80.1315977 106.65968,81.5741959 105.944741,82.8998643 C104.694994,85.3723047 102.560565,87.2849273 99.9650562,88.2581483 C98.7716306,88.6865133 97.5036968,88.8687912 96.2378084,88.7939767 C95.612744,88.7768225 94.9918129,88.6869108 94.3875918,88.5260625 C93.7844003,88.4025317 93.1989229,88.2045424 92.6446342,87.9366513 C91.5450607,87.434123 90.5527026,86.7246125 89.7218284,85.8469205 C88.9005701,84.9745296 88.2055817,83.9915702 87.657094,82.9266557 C87.0135404,81.7478332 84.9756208,78.3721142 84.9756208,78.3721142 C84.9756208,78.3721142 82.8572569,81.801416 82.0260002,82.8462814 C80.7050387,84.6296382 79.0007353,86.094431 77.03846,87.1329087 C76.0692087,87.5415064 75.0330188,87.7685434 73.9815805,87.8026942 C72.945498,87.8371097 71.9112716,87.6920813 70.924701,87.3740315 C69.9450561,87.0453717 69.0355903,86.5365136 68.2432278,85.8737119 C67.418299,85.1945188 66.7272066,84.367746 66.2053081,83.4356927 C65.911183,82.9816744 65.668366,82.4964625 65.4813103,81.988956 C65.2678638,81.4703047 65.1061912,80.9318646 64.9986452,80.3814707 C64.9193436,80.1102125 64.8654818,79.8321688 64.8377568,79.5509367 L64.8377568,79.0954826 L64.8377568,79.0954826 L64.8377568,78.6400284 C64.7980252,78.0781088 64.7980252,77.5140885 64.8377568,76.9521689 C64.9616393,75.7803274 65.2598871,74.633523 65.7226429,73.5496585 C66.2122631,72.3509543 66.8327556,71.2098812 67.5728595,70.1471481 C68.3206006,68.9778691 69.1447073,67.8591323 70.0398148,66.7982206 C70.9515157,65.7265638 71.9168461,64.654907 72.9358059,63.6100416 C74.9200961,61.4667279 77.0920895,59.4037886 79.1836386,57.2068921 C79.6931185,56.6710637 80.2294131,56.1352353 80.7388931,55.545824 C81.248373,54.9564128 81.7578529,54.4205844 82.2405181,53.8043817 C82.7324248,53.2249821 83.1890957,52.6166169 83.6080694,51.9825651 C84.043556,51.3527537 84.4290759,50.6898776 84.7611029,50 C84.2300843,50.526736 83.665818,51.0189212 83.0717748,51.4735281 L81.2751877,52.7863077 C80.0685247,53.6436332 78.8082323,54.4473758 77.5479399,55.2511184 C75.0273551,56.8586036 72.5067702,58.4928803 70.0130001,60.3146969 C68.8063371,61.2523966 67.5728595,62.1900963 66.3930112,63.2349617 C65.1936282,64.3132531 64.0650691,65.4676782 63.014355,66.6910549 C61.9013565,67.9664089 60.9303292,69.3588014 60.1183639,70.8437251 C59.2676734,72.4436142 58.6534921,74.1582173 58.2949621,75.9340949 C58.121748,76.8173174 58.0230805,77.7135142 58,78.613237 L58,80.0063909 C58,80.4886364 58,80.9440906 58.1340737,81.3995447 C58.2964265,82.3067554 58.5204004,83.2018718 58.804442,84.0786868 C59.1000285,84.9991563 59.4676304,85.894967 59.903846,86.7578288 C60.8279948,88.4497374 62.0340568,89.9718596 63.4702054,91.2587874 C64.9617723,92.5263103 66.6693424,93.515477 68.5113751,94.1790522 C70.3666581,94.8015374 72.321577,95.0740797 74.2765426,94.9827949 C78.1894996,94.7797887 81.8834921,93.1160688 84.6270292,90.3210877 L84.9219913,90.0263821 C86.5235804,91.5248773 88.4375229,92.6502853 90.5262704,93.3217268 C91.4648225,93.6424328 92.4360971,93.858084 93.4222615,93.9647209 C94.3942773,94.0583373 95.3730515,94.0583373 96.3450673,93.9647209 C98.3094961,93.8831907 100.231938,93.3709852 101.976161,92.4644013 C103.629446,91.5270266 105.071677,90.2593318 106.212889,88.7403939 C108.376046,85.8652028 109.337419,82.2631887 108.894362,78.6936113" id="Path" fill="#00843D"></path>
                <path d="M78.474542,48.0367661 C78.0195809,47.4476658 77.5913822,46.8585654 77.1631834,46.2426877 C76.3335484,45.0377097 75.5306758,43.779177 74.7010408,42.5206444 C73.0952955,40.0035791 71.4627879,37.4865139 69.6429433,34.9962259 C68.733021,33.7912479 67.7695739,32.5594925 66.7258395,31.3812918 C65.6441937,30.1970348 64.500735,29.0708172 63.3002496,28.0073532 C62.0120541,26.9018284 60.6129535,25.9326821 59.1253121,25.1154059 C57.5283909,24.2631068 55.8152255,23.6496333 54.0404522,23.2945502 C53.1581857,23.121578 52.262959,23.0230483 51.3642101,23 L49.9725643,23 L48.5809184,23.1606637 C46.705789,23.4260631 44.8931417,24.024569 43.2284343,24.9279649 C41.5371246,25.8257964 40.022791,27.0234198 38.7591101,28.4625672 C36.1951814,31.4267367 34.8555063,35.2565068 35.0123712,39.1734832 C35.2151576,43.0809764 36.8770767,46.7698108 39.6690324,49.5095171 L39.9901814,49.8040673 C38.4454661,51.4272167 37.2840495,53.3761866 36.591354,55.5076301 C36.3010406,56.4621675 36.0862778,57.4380903 35.9490559,58.4263547 C35.8557059,59.3970212 35.8557059,60.3744128 35.9490559,61.3450793 C36.0309438,62.3616939 36.2193139,63.3668927 36.5110668,64.3441358 C36.799977,65.2745365 37.1856845,66.1720289 37.6618509,67.0218648 C38.5831445,68.6679064 39.8417145,70.1005533 41.3550649,71.2258993 C42.8132303,72.3095875 44.4672282,73.1006741 46.2258254,73.5555235 C47.9205882,73.9884837 49.6803903,74.1064741 51.417735,73.9036283 C52.2529744,73.7739685 53.0763705,73.57696 53.8798776,73.3145279 C54.6639628,73.0581146 55.4177657,72.7169191 56.127921,72.2969909 C55.3400348,72.4289359 54.5444017,72.5094379 53.7460655,72.5379865 C52.9664698,72.5663968 52.1860519,72.512545 51.417735,72.3773228 C49.9407519,72.1665971 48.5106563,71.7047274 47.1892725,71.011681 C44.7227359,69.7594674 42.8134903,67.6294759 41.8367884,65.0403453 C41.4236245,63.8357085 41.2420136,62.5637262 41.30154,61.2915247 C41.3342718,60.6687722 41.4238529,60.0503193 41.5691642,59.4438917 C41.7046228,58.8448739 41.9019406,58.2615654 42.1579375,57.7033678 C42.6693218,56.6108064 43.3768784,55.6214921 44.2454063,54.7846432 C45.1300396,53.9732836 46.1095228,53.2719795 47.1625101,52.6960146 C48.3400566,52.0801369 51.738884,50.0182856 51.738884,50.0182856 C51.738884,50.0182856 48.3132942,47.8761024 47.2427974,47.0460064 C45.461371,45.7268894 43.9981637,44.0249658 42.9608101,42.0654305 C42.5526547,41.0975326 42.3258634,40.0627895 42.2917496,39.0128194 C42.2681379,37.9767577 42.4220153,36.9443007 42.7467107,35.9602084 C43.0535083,34.9725388 43.5640803,34.0602964 44.2454063,33.2824794 C44.9203247,32.4583086 45.7357897,31.7602453 46.6540241,31.220628 C47.1233512,30.9458891 47.615888,30.7129242 48.1259572,30.5244185 C48.6348998,30.3114616 49.1638623,30.1499935 49.7049401,30.0424273 C49.9725643,30.0424273 50.2669509,30.0424273 50.5345751,29.8817635 L51.3642101,29.8817635 C51.9255055,29.8416375 52.4889472,29.8416375 53.0502426,29.8817635 C54.2219969,29.9989158 55.3685375,30.2970013 56.44907,30.7654141 C57.6467239,31.2608918 58.793886,31.8706603 59.8746598,32.5862698 C61.0234408,33.3579587 62.1311314,34.1891882 63.1932,35.0765578 C64.2636968,35.9869856 65.3341936,36.9509681 66.4046904,37.9685051 C68.5189216,39.9500246 70.579628,42.1189851 72.7741465,44.2076137 C73.3093949,44.7431595 73.8714057,45.251928 74.4334165,45.7606965 C74.9954274,46.269465 75.5574382,46.7782335 76.1729739,47.2602247 C76.7885095,47.742216 77.3772828,48.1974299 77.9928185,48.6258665 C78.6254936,49.0623463 79.2974619,49.4388576 80,49.7505127 C79.4519669,49.2429267 78.9504037,48.6873161 78.5013045,48.0903207" id="Path" fill="#00843D"></path>
                <path d="M132,57.3102269 C131.896436,55.4411179 131.434906,53.606721 130.63879,51.8999603 C129.842308,50.2002455 128.719285,48.6616523 127.329181,47.3656416 L127.062278,47.0822467 C128.545502,45.5464126 129.665605,43.718057 130.345196,41.7235065 C130.662674,40.8123917 130.877438,39.870887 130.985765,38.9153205 C131.079029,37.9814229 131.079029,37.041032 130.985765,36.1071345 C130.883896,35.165579 130.696339,34.2345096 130.425267,33.3247117 C130.127074,32.4331629 129.742826,31.5706057 129.27758,30.7483942 C128.34374,29.1599437 127.080826,27.774271 125.567616,26.6778127 C122.703267,24.599485 119.114836,23.675813 115.558719,24.1014953 C114.714857,24.2023779 113.883405,24.3836028 113.076512,24.6425219 C112.296566,24.8942406 111.545328,25.2222801 110.83452,25.6215226 C111.620461,25.4958412 112.413868,25.4183962 113.209964,25.389654 C113.9868,25.3880772 114.762772,25.4397334 115.532028,25.544233 C117.014523,25.7575831 118.44919,26.2104823 119.775801,26.8839181 C122.238918,28.0846555 124.144328,30.1353821 125.113879,32.629106 C125.776014,34.3454922 125.869281,36.2180628 125.380783,37.9878462 C125.254031,38.5746987 125.056977,39.1453244 124.793594,39.6882157 C124.307901,40.7780379 123.620515,41.7732981 122.765125,42.6252176 C121.880415,43.414546 120.893566,44.0900016 119.829181,44.6347452 C118.654804,45.2272982 115.265125,47.2110626 115.265125,47.2110626 C115.265125,47.2110626 118.681495,49.2721165 119.775801,50.0707749 C121.543355,51.3421613 122.993442,52.9795593 124.019573,54.8627253 C124.426352,55.785032 124.65259,56.7721012 124.686833,57.773964 C124.704284,58.7515855 124.560125,59.7256395 124.259786,60.6594395 C123.932366,61.600667 123.425427,62.4744674 122.765125,63.235757 C122.07606,64.0233871 121.255073,64.6939356 120.336299,65.2195214 C119.872432,65.4820688 119.390935,65.7144533 118.895018,65.9151271 C118.370032,66.0967867 117.835481,66.2515809 117.293594,66.3788642 L116.466192,66.5076801 L115.532028,66.5076801 C114.972797,66.5591285 114.409765,66.5591285 113.850534,66.5076801 C112.67986,66.4063258 111.53456,66.1190666 110.460854,65.6574953 C109.261421,65.1910953 108.116296,64.6038817 107.044484,63.9055995 C105.898795,63.1631362 104.794086,62.3633872 103.734875,61.5096243 C102.66726,60.6336764 101.572954,59.7062021 100.532028,58.7272015 C98.4234875,56.8207266 96.3683274,54.7596726 94.1797153,52.7243819 L92.524911,51.2301178 L90.816726,49.8131432 C90.2295374,49.349406 89.588968,48.8856689 88.975089,48.4734581 C88.3533552,48.0537573 87.6920758,47.6914752 87,47.3914048 C87.5244549,47.8927686 88.0148003,48.426319 88.4679715,48.9887216 C88.9217082,49.5555114 89.3487544,50.1480644 89.7758007,50.7148543 C90.6298932,51.8999603 91.430605,53.0850663 92.2313167,54.2959355 C93.8327402,56.7176739 95.4608541,59.1651754 97.2758007,61.5353875 C98.183274,62.7204935 99.1708185,63.8798363 100.185053,65.013416 C101.258896,66.1741679 102.408956,67.2670639 103.628114,68.2853391 C104.948057,69.3108966 106.369521,70.2083595 107.871886,70.9647092 C109.45942,71.7957729 111.169738,72.3866223 112.94306,72.7166051 C113.822952,72.8830265 114.71577,72.9778246 115.6121,73 L117,73 L118.3879,72.8711841 C119.293596,72.7358588 120.186268,72.5290602 121.05694,72.2528679 C121.979047,71.9717782 122.872476,71.609574 123.725979,71.1708146 C125.417459,70.2916141 126.935304,69.1317308 128.209964,67.7443125 C130.755002,64.8872288 132.081044,61.2038455 131.919929,57.4390428" id="Path" fill="#78BE21"></path>
                <path d="M63.9954747,119.910253 C63.7005348,119.910253 63.3251567,119.910253 62.9497786,119.910253 C61.2752602,120.210582 59.6260736,120.635025 58.0162379,121.179973 C57.1931319,121.501838 56.3515463,121.775653 55.4958422,122 C54.9059623,122 54.1283934,122 54.0211425,121.206425 C53.9138917,120.412851 54.2088316,120.280588 55.0400259,120.068968 C55.8712203,119.857348 60.8315736,118.428914 63.298344,118.032126 C63.8345984,118.032126 64.8534818,117.794054 64.9875454,118.614081 C65.0331392,118.910429 64.9523843,119.212178 64.7644513,119.447697 C64.5765182,119.683215 64.2981665,119.831499 63.9954747,119.857348" id="Path" fill="#FF6900"></path>
                <path d="M85.0871322,122.81509 C84.2299633,122.932595 83.4176453,122.427482 83.2179436,121.652796 C83.2036728,121.494572 83.2036728,121.335535 83.2179436,121.177312 C83.0166464,120.147097 82.5565384,118.984803 82.2689709,117.399857 C82.2689709,116.607383 82.0101602,115.762079 81.8663765,114.996021 C81.8419981,114.514317 81.7251761,114.040356 81.5212955,113.595986 C79.9396744,116.237563 79.5945934,122.339606 78.9331882,122.683011 C78.699627,122.851599 78.4219757,122.960905 78.1279993,123 C77.2940536,123 77.0064862,122.445269 76.8627024,121.652796 C76.8627024,121.44147 76.8627024,120.965986 76.8627024,120.754659 C76.6614052,117.743262 76.0575135,115.471505 76,112.829928 C76,112.169534 76.345081,111.905376 76.7764322,111.852545 C77.2453202,111.798276 77.7189661,111.911777 78.0992426,112.169534 C78.2757505,112.365007 78.3857585,112.603858 78.4155668,112.856344 C78.4155668,113.648817 78.4155668,114.837527 78.6456208,115.841326 C79.4220529,114.045054 80.4860526,111.165735 81.7225927,111.00724 C82.9591329,110.848745 84.0231325,113.305412 84.5982675,117.109283 C84.7517909,118.290189 84.9725618,119.462896 85.2596726,120.622581 C85.5928369,120.984671 85.8379464,121.407964 85.9785913,121.864122 C86.0376172,122.118988 85.9732374,122.384839 85.8021588,122.592685 C85.6310802,122.80053 85.3701687,122.929881 85.0871322,122.947168" id="Path" fill="#FF6900"></path>
                <path d="M103.319279,115.99751 C102.968729,116.271189 102.635251,116.563057 102.320454,116.871706 C100.8247,118.558799 98.8531644,119.829645 96.624456,120.54333 C95.4174201,120.672749 94.2155475,120.265009 93.3850256,119.444341 C93.3231022,119.890107 93.2329632,120.332127 93.1150731,120.768123 C93.0224855,120.930006 92.85202,121.041338 92.6561538,121.067848 C92.2479654,121.113399 91.8451108,120.950924 91.6033389,120.643238 C90.8322456,121.279733 89.9059951,121.733944 88.9038136,121.967021 C88.3135126,122.067482 87.7046517,121.936119 87.2232623,121.604439 C86.741873,121.272758 86.4313824,120.770681 86.3662598,120.218629 C86.1074886,118.308826 87.3207096,116.489931 89.2817471,115.847648 C90.2000333,115.762325 91.0872106,116.182522 91.5493484,116.92166 C91.5860787,116.564463 91.5860787,116.204846 91.5493484,115.847648 C91.3873769,114.898521 90.5775193,112.700542 89.0387898,112.925335 C88.5022927,112.988463 88.0207403,113.261249 87.7160224,113.674646 C87.7160224,113.949394 87.5000604,114.124233 87.2031126,114.174187 C86.6611563,114.267215 86.1366221,113.947345 86.0153215,113.449853 C85.8263547,112.375841 87.4190746,111.376759 88.9308088,111.151966 C90.5896343,110.970549 92.1693992,111.855778 92.7641348,113.299991 C94.0119953,111.592627 95.9648655,110.43623 98.1631855,110.102931 C99.0611142,109.926056 99.9940816,109.977849 100.862711,110.252793 C101.024682,110.252793 101.159659,110.402655 101.159659,110.477586 C100.815091,112.135304 99.7126844,113.574217 98.1361902,114.423957 C96.8888554,115.144834 95.5203223,115.668204 94.0869022,115.972533 L94.0869022,116.272258 C94.3028642,117.421201 95.4366649,118.894846 96.7864275,118.769961 C98.1361902,118.645076 101.564587,115.398061 101.807545,115.023406 C102.050502,114.64875 102.212473,113.974371 102.752379,113.899439 C103.339288,113.849798 103.873254,114.214962 103.99416,114.748659 C104.037547,115.220485 103.837364,115.683527 103.454255,115.99751 M89.6326854,117.795856 C88.7162818,118.184101 88.1644256,119.065134 88.2559275,119.993835 C88.2559275,120.343514 88.4988848,120.418445 88.7958326,120.368491 C89.5988452,120.085294 90.3131518,119.621804 90.8744671,119.019731 C90.6315098,118.595122 90.010619,117.720925 89.6326854,117.795856 M98.2981617,112.001185 L98.2981617,112.001185 C97.5557257,112.128882 96.8542551,112.410697 96.2465225,112.825427 C95.6302029,113.219534 95.0837844,113.699822 94.6268073,114.249118 C95.4041237,114.008607 96.1544839,113.699116 96.8674133,113.324968 C97.4301424,113.003507 97.9317752,112.598448 98.3521522,112.12607" id="Shape" fill="#FF6900"></path>
                <path d="M113.876227,107.837456 C113.511013,107.837456 113.201986,107.837456 112.864866,107.837456 C112.693849,107.857134 112.535312,107.929143 112.415372,108.041618 C110.579403,109.707671 109.152783,111.708133 108.229459,113.911269 C107.583311,115.18728 108.229459,116.871614 107.864245,117.458579 C107.706715,117.732986 107.414468,117.922614 107.077631,117.968984 C106.725963,118.043904 106.355829,117.981705 106.056937,117.797463 C105.758045,117.61322 105.557679,117.323751 105.504402,116.999215 C105.487835,116.718695 105.487835,116.437569 105.504402,116.157048 C105.54507,114.765651 105.451064,113.373699 105.223468,111.997252 C105.03884,110.778666 104.630502,109.596845 104.015453,108.500982 C103.994849,108.416944 103.994849,108.329817 104.015453,108.245779 C104.015453,107.760895 104.49304,107.327052 105.083001,107.224971 C106.515763,107.020809 106.880977,108.628583 107.077631,109.776993 C107.274284,110.925403 107.302378,111.027484 107.414751,111.537888 C108.463923,109.772183 109.767719,108.141518 111.291637,106.689046 C111.75978,106.334853 112.321311,106.097394 112.921052,106 C113.73576,106 114.803309,106 115,106.918728 C115.004534,107.422205 114.594477,107.849483 114.044787,107.914017" id="Path" fill="#FF6900"></path>
                <path d="M131.347837,97.19642 C131.073549,97.2727274 130.781551,97.2727274 130.507263,97.19642 C130.096686,97.0307586 129.645425,96.9743135 129.202924,97.0332694 C126.710187,97.4139541 127.376849,102.852307 127.782643,105.190799 L127.782643,106.006552 C128.507872,105.82372 129.243279,105.678478 129.985527,105.571484 C130.315505,105.534699 130.637847,105.452227 130.942043,105.326758 C131.116393,105.162304 131.337939,105.048939 131.57972,105.000457 C132.276853,104.977737 132.884162,105.442823 133,106.088127 C133,106.631963 132.768117,107.175798 131.63769,107.393332 C129.78263,107.746825 129.144953,107.774017 128.159452,108.045934 C128.552302,110.158456 128.794385,112.293224 128.884085,114.435999 C128.884085,116.556957 128.884085,118.59634 128.884085,120.690106 C128.884085,121.560242 129.057997,122.783871 128.014526,122.947022 C127.63189,123.053719 127.218624,122.997611 126.883933,122.793523 C126.549242,122.589435 126.326807,122.257906 126.275407,121.886543 C126.227822,121.560079 126.288544,121.227787 126.449319,120.934831 C126.756937,118.890439 126.824975,116.82059 126.652216,114.762301 C126.590347,112.774644 126.377246,110.793671 126.014539,108.834496 C125.687279,109.039186 125.450378,109.348392 125.347877,109.704632 C125.20253,110.062042 124.876092,110.327449 124.478317,110.411618 C123.781864,110.45473 123.155238,110.016723 123,109.378331 C122.997362,109.08315 123.077322,108.792478 123.231949,108.535386 C123.785891,107.691982 124.637023,107.057058 125.63773,106.74073 C125.14498,103.396143 123.956582,95.8640234 129.029012,95.0210787 C129.308402,94.9929738 129.590195,94.9929738 129.869586,95.0210787 C131.318852,95.0210787 132.014499,95.6464893 132.101455,96.2718999 C132.151823,96.5071986 132.096361,96.7515652 131.948184,96.9472054 C131.800008,97.1428456 131.572277,97.2723851 131.318852,97.305187" id="Path" fill="#FF6900"></path>
                <path d="M136.593563,112.966451 C134.763773,113.289645 133.397873,111.215814 133.114384,109.411312 C132.961872,108.692857 132.961872,107.948203 133.114384,107.229749 C133.939079,103.917006 135.124577,102.354899 136.54202,102.004772 L136.670878,102.004772 C138.88745,101.896255 140.783939,103.651344 140.94898,105.963904 C141.340849,109.1332 139.439136,112.12004 136.490476,112.966451 M137.495573,104.024737 C135.975042,104.294066 134.738001,107.606809 134.918403,109.061184 C134.918403,109.68064 135.511152,111.054217 136.438933,110.919552 C137.520993,110.511795 138.384106,109.639206 138.809929,108.522527 C139.076002,107.737375 139.164219,106.898435 139.067646,106.071636 C139.067646,105.344448 138.449125,103.86314 137.521344,104.024737" id="Shape" fill="#FF6900"></path>
                <path d="M144.619416,96.2644699 C144.644719,100.544598 144.949177,104.820186 145.531373,109.071305 C145.531373,109.700325 145.884388,110.555791 145.972642,111.059007 C146.060896,111.562222 145.972642,112.870583 145.14894,112.996386 C144.795332,113.018484 144.443245,112.938772 144.148729,112.769939 C143.782933,112.242014 143.571042,111.646554 143.530952,111.033846 C142.942593,107.838427 142.618996,101.246304 142.501324,100.013426 C142.383652,98.7805476 142.207144,97.270901 142.118891,96.365113 C141.96037,95.7433995 141.96037,95.0997683 142.118891,94.4780548 C142.323697,94.2333628 142.627933,94.062881 142.972011,94 C143.766296,94 144.266401,94.4277332 144.413491,95.1825565 C144.440826,95.5428154 144.440826,95.904211 144.413491,96.2644699" id="Path" fill="#FF6900"></path>
                <path d="M162.702697,108.32385 C162.477079,108.32385 162.195056,108.636613 161.715618,108.871185 C161.050184,109.212514 160.324468,109.441958 159.572247,109.548839 C155.993094,109.689657 152.457929,108.777064 149.475842,106.942479 C149.497514,107.719351 149.572873,108.494149 149.70146,109.262139 C149.768982,109.806528 149.911133,110.340772 150.124493,110.852018 C150.279769,111.161902 150.402541,111.484831 150.491123,111.816371 C150.491123,112.363706 150.491123,112.832851 149.306628,112.989233 C148.122134,113.145614 147.924718,111.581799 147.558089,109.392457 C146.683819,104.388247 146.881235,95.7351353 147.840111,95.1877998 C148.005246,95.0973992 148.186828,95.0355737 148.375954,95.0053547 C149.089037,94.9439717 149.725929,95.4171559 149.814269,96.0739619 C149.814269,96.0739619 149.814269,96.3085343 149.645055,97.090442 C149.323303,98.9688164 149.209906,100.872642 149.306628,102.772305 C152.184055,101.396279 155.150976,100.186348 158.190337,99.1494657 C158.427689,99.076878 158.687929,99.1086061 158.896792,99.2355957 C159.105654,99.3625852 159.240196,99.5708864 159.262022,99.8010555 C159.326784,100.154321 159.200378,100.514514 158.923595,100.765408 C158.010223,101.20147 157.068321,101.584479 156.10337,101.912206 C154.005883,102.723229 151.978779,103.681704 150.039887,104.779201 C151.944058,105.982656 154.063734,106.86506 156.300786,107.38556 C157.368858,107.68469 158.492941,107.773479 159.600449,107.646196 C160.422109,107.575717 161.181301,107.210875 161.715618,106.629716 C161.831545,106.271293 162.161312,106.007168 162.561685,105.952063 C163.212261,105.878159 163.823595,106.254809 164,106.838225 C164,107.281306 163.802584,107.802578 162.87191,108.297786" id="Path" fill="#FF6900"></path>
                <path d="M21.4018271,84.1605446 C20.9802187,83.6689885 20.4939364,83.2409902 19.9572037,82.8890684 C19.3055733,82.4547127 18.6159035,82.0845438 17.8972779,81.783437 C17.0996724,81.4465746 16.2764616,81.178466 15.4360678,80.9818543 C14.5559585,80.7912348 13.6600076,80.689407 12.7608394,80.6778056 C10.8089446,80.5201685 8.86151906,81.0353448 7.22311664,82.1427672 C6.06731247,83.111083 5.42255029,84.5869193 5.48421819,86.1230403 C5.45217272,86.912144 5.62783779,87.6954567 5.99251158,88.3895847 C6.37120704,89.0286002 6.9064471,89.5530124 7.54414404,89.9098279 C8.39005064,90.3872184 9.28816769,90.7583965 10.2193724,91.0154593 C11.2627115,91.3471487 12.5468211,91.6511974 13.9914445,92.0105276 C15.5224991,92.3488327 17.0323103,92.7826664 18.5125804,93.3096445 C19.7453354,93.7220312 20.9093114,94.3280097 21.963625,95.1062955 C22.9045599,95.8263409 23.6582299,96.7759762 24.1573123,97.8703741 C25.9435472,101.690088 24.8151576,106.283599 21.4820839,108.760843 C20.366142,109.559757 19.1132523,110.131964 17.7902688,110.446931 C16.265508,110.822239 14.7027833,111.007828 13.1353714,111 C10.7317741,111.006992 8.34416732,110.595841 6.07276843,109.783552 C3.86884,108.994161 1.81413058,107.815783 -1.8189894e-12,106.300814 L1.84590759,102.514026 C2.3908908,103.145234 3.01114013,103.702494 3.69181517,104.172473 C4.53487021,104.742673 5.43108713,105.224184 6.36704356,105.609794 C7.3975701,106.045251 8.4627439,106.387439 9.55056533,106.632503 C10.7260396,106.913005 11.9289633,107.052133 13.1353714,107.047115 C15.0000983,107.163845 16.857836,106.722375 18.4858281,105.775639 C19.7483092,104.957657 20.4848653,103.499038 20.4119926,101.96121 C20.4156253,101.118777 20.1833571,100.293238 19.7431855,99.5841027 C19.2705786,98.9022405 18.6586694,98.3360626 17.9507825,97.9256556 C17.0188952,97.3966436 16.0315806,96.9793277 15.0080312,96.6818203 C13.8309307,96.3224901 12.5200688,95.9631599 11.0219409,95.5761889 C9.58108533,95.2057275 8.16106498,94.753577 6.76832781,94.2217904 C5.66723178,93.833675 4.62981666,93.2744386 3.69181517,92.5633433 C2.89080303,91.9390199 2.24822988,91.1233536 1.8191553,90.1862357 C1.31002362,89.1288195 1.03583002,87.9672888 1.01658679,86.7864192 C0.990658954,85.3281751 1.28327159,83.8826553 1.87265987,82.557379 C2.45122104,81.3590978 3.27233908,80.3033246 4.28036542,79.4616111 C5.41386694,78.5937493 6.70632309,77.9730791 8.07918972,77.6373192 C9.58623291,77.2063332 11.1436534,76.9924005 12.7073348,77.0015812 C14.7238293,76.9731166 16.7281096,77.3291898 18.6195896,78.051931 C20.3252208,78.7001057 21.9159536,79.6339492 23.3279915,80.8160095 L21.4018271,84.1605446 Z" id="Path" fill="#00491E"></path>
                <path d="M41.4949352,111.742262 C39.6951193,111.781356 37.9251276,111.26731 36.4131377,110.26639 C34.9803689,109.336734 33.778601,108.07808 32.9030301,106.590129 L32.9030301,121 L29,121 L29,87.4038014 L32.5363024,87.4038014 L32.5363024,91.8850835 C33.446403,90.4337561 34.6753955,89.2207225 36.1249945,88.3429923 C37.5999766,87.4507493 39.2843417,86.9869144 40.9972334,87.001291 C42.5280548,86.9762371 44.0435977,87.3161389 45.4241601,87.9941499 C46.7380634,88.6465057 47.9131509,89.5584461 48.8818781,90.6775524 C49.882928,91.8442906 50.6644786,93.1907906 51.1870234,94.648988 C51.7331486,96.1323577 52.0084036,97.7059414 51.9990632,99.2912742 C52.0176109,100.925227 51.7606194,102.550192 51.239413,104.094565 C50.7821311,105.526977 50.061966,106.856727 49.1176316,108.012332 C48.2169836,109.137829 47.091589,110.052794 45.8170826,110.695735 C44.4962121,111.357439 43.0438493,111.697246 41.5735197,111.688594 M40.3947523,108.253838 C41.4789772,108.276072 42.5511448,108.017641 43.5119374,107.502486 C44.4456627,107.026402 45.267779,106.348999 45.921862,105.516768 C46.597842,104.660236 47.1210238,103.688262 47.4673571,102.645527 C47.8129996,101.590312 47.9899122,100.484812 47.9912661,99.3717763 C47.9931381,98.2053753 47.7798371,97.0491151 47.3625778,95.9638552 C46.9672316,94.9726423 46.3991605,94.0633723 45.6861085,93.2804528 C44.9474795,92.4639071 44.0568392,91.8069985 43.0666252,91.348403 C42.0810295,90.8838198 41.0081656,90.6456937 39.9232453,90.6506405 C39.1716344,90.6679564 38.428047,90.8130482 37.7228793,91.0800628 C36.9634347,91.3730608 36.242032,91.7605883 35.574903,92.2339258 C34.9125606,92.6971934 34.3285776,93.268234 33.8460441,93.9244693 C33.3732691,94.5284067 33.0417312,95.2352 32.8768352,95.9906892 L32.8768352,102.779697 C33.2129994,103.568107 33.6347749,104.315224 34.1341872,105.006921 C34.6292517,105.67499 35.2108908,106.270822 35.8630462,106.777967 C36.4986793,107.278754 37.2053906,107.67693 37.9586328,107.958664 C38.7025103,108.250561 39.4934287,108.396219 40.2899729,108.388009" id="Shape" fill="#00491E"></path>
            </g>
        </g>
    </g>
</svg>